<?xml version="1.0" standalone="no"?>
<!DOCTYPE svg PUBLIC "-//W3C//DTD SVG 20010904//EN"
 "http://www.w3.org/TR/2001/REC-SVG-20010904/DTD/svg10.dtd">
<svg version="1.0" xmlns="http://www.w3.org/2000/svg"
 width="181.000000pt" height="185.000000pt" viewBox="0 0 181.000000 185.000000"
 preserveAspectRatio="xMidYMid meet">
<metadata>
Created by potrace 1.10, written by Peter Selinger 2001-2011
</metadata>
<g transform="translate(0.000000,185.000000) scale(0.100000,-0.100000)"
fill="#000000" stroke="none">
<path d="M776 1620 c-232 -59 -421 -228 -495 -443 -115 -333 38 -707 352 -860
119 -58 178 -72 312 -71 165 1 290 45 427 151 97 74 194 220 235 353 24 80 24
303 -1 385 -71 232 -257 416 -488 481 -91 25 -250 27 -342 4z m368 -93 c179
-70 330 -225 383 -396 22 -72 25 -283 4 -356 -47 -166 -166 -314 -316 -388
-106 -54 -142 -61 -280 -61 -108 0 -140 4 -190 23 -256 94 -425 331 -425 596
0 276 180 513 453 596 95 29 277 22 371 -14z"/>
<path d="M752 1380 c-40 -25 -67 -78 -58 -115 9 -35 50 -72 89 -81 42 -9 47
-12 40 -29 -3 -8 -16 -15 -28 -15 -29 0 -38 -13 -45 -65 -3 -26 -11 -41 -22
-43 -23 -4 -31 27 -19 79 9 40 8 45 -19 75 -15 18 -33 41 -39 51 -10 16 -14
14 -50 -24 -44 -45 -57 -79 -47 -119 9 -34 53 -74 82 -74 19 0 24 -5 24 -26 0
-25 -2 -26 -32 -20 -18 3 -46 16 -61 27 -16 11 -32 18 -35 14 -4 -4 -7 -35 -7
-70 0 -56 3 -67 29 -94 27 -28 27 -31 12 -52 -20 -29 -21 -69 -2 -95 17 -22
15 -24 44 39 23 50 73 89 107 85 12 -2 20 -11 20 -23 0 -12 -8 -21 -20 -23
-32 -6 -74 -52 -81 -89 -9 -47 11 -86 68 -138 48 -43 53 -45 110 -45 52 0 63
3 89 29 l29 29 0 392 0 391 -25 24 c-31 32 -104 34 -153 5z m22 -440 c21 -8
56 -54 56 -75 0 -15 -39 -2 -60 20 -24 26 -54 33 -65 15 -12 -19 -45 -11 -45
10 0 34 62 50 114 30z"/>
<path d="M1026 1377 l-26 -26 0 -256 0 -255 45 0 c38 0 45 -3 45 -20 0 -14 -9
-21 -34 -26 -19 -3 -39 -3 -45 1 -8 4 -11 -31 -11 -114 l0 -119 31 -26 c25
-21 41 -26 86 -26 51 0 58 3 94 39 33 33 39 45 39 81 0 33 -6 48 -29 71 -16
16 -39 29 -50 29 -24 0 -29 28 -6 36 41 16 105 -31 126 -93 13 -40 21 -41 48
-7 25 31 28 91 6 120 -19 26 -19 32 6 39 49 16 74 113 46 178 l-12 29 -39 -31
c-30 -24 -49 -31 -82 -31 -38 0 -44 -3 -44 -21 0 -30 -18 -59 -37 -59 -13 0
-15 8 -9 48 5 40 3 54 -14 75 -41 52 -9 81 36 32 18 -19 33 -25 68 -25 37 0
48 5 70 31 40 47 36 98 -11 150 l-37 41 -18 -24 c-10 -13 -16 -32 -13 -44 5
-24 -19 -52 -30 -34 -4 7 -25 8 -56 4 -45 -6 -49 -5 -49 15 0 15 6 21 24 21
56 0 108 77 86 129 -22 54 -64 84 -124 89 -48 4 -57 1 -80 -21z"/>
</g>
</svg>
